<?xml version="1.0" encoding="UTF-8" standalone="no"?>
<svg
   height="235.10001"
   viewBox="53.1 394.8 86.653682 235.1"
   width="235.60001"
   version="1.1"
   id="svg4"
   sodipodi:docname="ue_logo.svg"
   inkscape:version="1.4.2 (f4327f4, 2025-05-13)"
   xmlns:inkscape="http://www.inkscape.org/namespaces/inkscape"
   xmlns:sodipodi="http://sodipodi.sourceforge.net/DTD/sodipodi-0.dtd"
   xmlns="http://www.w3.org/2000/svg"
   xmlns:svg="http://www.w3.org/2000/svg">
  <defs
     id="defs4" />
  <sodipodi:namedview
     id="namedview4"
     pagecolor="#ffffff"
     bordercolor="#000000"
     borderopacity="0.25"
     inkscape:showpageshadow="2"
     inkscape:pageopacity="0.0"
     inkscape:pagecheckerboard="0"
     inkscape:deskcolor="#d1d1d1"
     inkscape:zoom="1.4784"
     inkscape:cx="180.60065"
     inkscape:cy="116.68019"
     inkscape:window-width="3840"
     inkscape:window-height="2089"
     inkscape:window-x="-8"
     inkscape:window-y="-8"
     inkscape:window-maximized="1"
     inkscape:current-layer="svg4" />
  <path
     d="M -7.5350535,433.5764 H 197.16494 v 159.2 H -7.5350535 Z"
     fill="#ffffff"
     id="path1" />
  <path
     d="m -20.835054,630.5764 v -235.1 H 214.76494 v 235.1 z m 199.899994,-129 c -5.5,-16.8 -18.8,-29 -36.4,-30.5 -23.9,-2.1 -38.8,10.4 -47.699994,32.2 v -29.1 h -18.2 v 10.6 c 0,12.4 0.1,24.8 -0.2,37.2 -0.3,10 -7.7,18.3 -17.4,20.4 -9.5,2.1 -19.1,-2.3 -24,-10.9 -2.5,-4.4 -3.1,-9.2 -3.2,-14.1 v -40.2 c 0,-1 0.3,-2 -0.3,-2.9 h -17.9 c -0.1,0.4 -0.2,0.7 -0.2,0.9 0,15 -0.3,30.1 0.1,45.1 0.6,21.9 13.9,37 35.2,39.8 23.7,3.1 42.4,-11.7 45.7,-33.1 0.1,-0.7 0,-1.5 0.8,-2 5.999994,24.8 26.699994,37.4 48.299994,35.2 20.6,-2.1 39.7,-19.4 40.1,-36.3 -5.7,-1.1 -11.5,-2.2 -17.2,-3.3 -5.6,23.6 -33.7,27.1 -45.6,14.3 19.3,-10.9 38.7,-22 58.1,-33.3 z"
     fill="#fe3228"
     id="path2" />
  <path
     d="m 155.66494,496.4764 c -14.2,8.2 -28.2,16.3 -42.2,24.5 -4.2,-7.8 0.5,-20.7 10,-27.4 10.2,-7.4 23.9,-6.2 32.2,2.9 z"
     fill="#fe3228"
     id="path3" />
</svg>
